<svg width="15" height="18" viewBox="0 0 15 18" fill="none" xmlns="http://www.w3.org/2000/svg">
<path d="M7.72266 4.15385C8.55469 4.15385 9.59766 3.60458 10.2188 2.87222C10.7812 2.20852 11.1914 1.28163 11.1914 0.354736C11.1914 0.228862 11.1797 0.102988 11.1563 0C10.2305 0.0343293 9.11719 0.606485 8.44922 1.37317C7.92188 1.95677 7.44141 2.87222 7.44141 3.81055C7.44141 3.94787 7.46484 4.08519 7.47656 4.13096C7.53516 4.1424 7.62891 4.15385 7.72266 4.15385ZM4.79297 18C5.92969 18 6.43359 17.2562 7.85156 17.2562C9.29297 17.2562 9.60938 17.9771 10.875 17.9771C12.1172 17.9771 12.9492 16.8557 13.7344 15.7572C14.6133 14.4984 14.9766 13.2626 15 13.2053C14.918 13.1825 12.5391 12.2327 12.5391 9.56643C12.5391 7.25493 14.4141 6.2136 14.5195 6.1335C13.2773 4.39415 11.3906 4.34838 10.875 4.34838C9.48047 4.34838 8.34375 5.17228 7.62891 5.17228C6.85547 5.17228 5.83594 4.39415 4.62891 4.39415C2.33203 4.39415 0 6.24793 0 9.74952C0 11.9237 0.867187 14.2238 1.93359 15.7114C2.84766 16.9701 3.64453 18 4.79297 18Z" fill="white"/>
</svg>
